<svg width="84" height="86" fill="none" xmlns="http://www.w3.org/2000/svg"><path fill-rule="evenodd" clip-rule="evenodd" d="M80.791 49.21c-8.176 0-12.278 9.905-6.498 15.686a2.727 2.727 0 010 3.857l-5.87 5.871a2.727 2.727 0 01-3.858 0c-3.213-3.213-7.7-3.372-11.052-1.476V62.176c6.782-3.982 11.335-11.35 11.335-19.782 0-12.66-10.263-22.924-22.924-22.924S18.999 29.733 18.999 42.394c0 8.496 4.622 15.913 11.488 19.873V73.14c-3.35-1.894-7.835-1.732-11.052 1.484a2.727 2.727 0 01-3.857 0l-5.871-5.871a2.727 2.727 0 010-3.857c5.78-5.781 1.678-15.686-6.498-15.686a2.727 2.727 0 01-2.727-2.728V38.18a2.727 2.727 0 012.727-2.727c8.176 0 12.279-9.905 6.498-15.686a2.727 2.727 0 010-3.857l5.871-5.872a2.727 2.727 0 013.857 0c5.781 5.781 15.686 1.679 15.686-6.497A2.727 2.727 0 0137.85.812h8.303A2.727 2.727 0 0148.88 3.54c0 8.176 9.905 12.278 15.686 6.497a2.727 2.727 0 013.857 0l5.872 5.872a2.727 2.727 0 010 3.857c-5.781 5.78-1.68 15.686 6.497 15.686a2.727 2.727 0 012.728 2.727v8.303a2.727 2.727 0 01-2.728 2.728zM33.203 27.329c-5.172 3.027-8.647 8.64-8.647 15.065 0 7.465 4.69 13.834 11.283 16.324v26.47h12.322v-26.47c6.593-2.49 11.283-8.859 11.283-16.324 0-6.425-3.475-12.038-8.647-15.065v16.767L42 49.175l-8.797-5.08V27.33z" fill="#A9A9A9"/></svg>