<svg width="90" height="90" fill="none" xmlns="http://www.w3.org/2000/svg"><path d="M41.088 5.625a2.168 2.168 0 00.164 1.657 1.507 1.507 0 01-1.224 2.345c-1.813-.083-2.14-2.79-1.971-3.987a34.115 34.115 0 00-21.562 9.093 2.12 2.12 0 001.27 1.045 1.512 1.512 0 011.209 1.733c-.656 2.456-3.863.6-4.629-.628a34.171 34.171 0 00-8.84 21.681 2.177 2.177 0 001.658-.164 1.491 1.491 0 011.702 2.449 4.68 4.68 0 01-3.345.732 34.155 34.155 0 009.094 21.576 2.13 2.13 0 001.045-1.27 1.49 1.49 0 011.732-1.209c2.473.635.592 3.852-.627 4.614a34.171 34.171 0 0021.68 8.84 2.304 2.304 0 00-.163-1.658 1.498 1.498 0 012.463-1.702c.648.987.909 2.178.732 3.345a33.571 33.571 0 009.75-1.941c.005-3.288-.003-9.371 0-12.573-14.76 8.903-34.525-2.368-34.283-19.725-.244-17.353 19.53-28.63 34.284-19.724a9.754 9.754 0 016.644-9.378 33.924 33.924 0 00-16.783-5.151z" fill="#A9A9A9"/><path d="M51.227 39.102l-1.105-.105a2.63 2.63 0 01-1.419-4.614l2.524-2.21v-8.45a19.18 19.18 0 00-5.331-2.703l-3.778 8.735a2.621 2.621 0 01-4.808-.075l-3.703-8.646a19.913 19.913 0 00-9.87 7.198l7.138 6.271a2.637 2.637 0 01-1.568 4.57l-9.377.85a19.665 19.665 0 003.807 11.602l8.168-4.853a2.639 2.639 0 013.867 2.897l-2.09 9.168a19.718 19.718 0 0012.214 0l-2.09-9.287a2.627 2.627 0 013.942-2.763l3.479 2.076c.004-2.168-.003-7.51 0-9.661zM39.759 44.76a4.883 4.883 0 010-9.765 4.883 4.883 0 010 9.765zm33.104-6.076c.787.255 3.41 1.194 4.18 1.418-.045-.05 7.451-6.077 7.452-6.107V22.259l-5.615 4.569c-1.209 1.098-2.84.584-4.18.06l-2.808-.956a1.5 1.5 0 01-.025-2.825 1.502 1.502 0 011.19.063l3.942 1.343 7.331-5.972a6.772 6.772 0 00-6.6-5.286H60.963a6.797 6.797 0 00-6.749 7.063c.005.966-.004 2.873 0 3.837 2.323 1.91 5.174 4.195 7.48 6.092.764-.297 3.363-1.131 4.152-1.418a1.497 1.497 0 01.955 2.837l-.895.298c-1.793.502-4.411 2.122-6.093.598 0 0-5.023-4.101-5.599-4.554-.028.852.02 10.632 0 11.736 2.13 1.719 5.358 4.372 7.481 6.092l1.792-.612c.607-.136 2.598-1.099 3.21-.836a1.494 1.494 0 01.105 2.852c-.527.184-3.543 1.214-4.136 1.418-1.75.668-3.133-.709-4.36-1.732l-4.092-3.33c.024 3.515-.017 8.252 0 11.722 2.19 1.794 7.48 6.107 7.48 6.107.576-.2 3.51-1.194 4.152-1.419a1.49 1.49 0 01.956 2.822c-5.779 1.93-5.088 2.711-10.05-1.598l-2.538-2.06c-.003 2.547.002 9.119 0 11.736L61.693 77l4.152-1.404a1.49 1.49 0 01.956 2.822l-4.137 1.418a2.94 2.94 0 01-2.852-.522l-5.599-4.554v2.867a6.762 6.762 0 006.75 6.749H77.73a6.765 6.765 0 006.764-6.75v-8.6l-5.615 4.569a3.021 3.021 0 01-1.881.672 37.98 37.98 0 01-5.107-1.583 1.492 1.492 0 01.97-2.822L77 71.28l7.496-6.122V53.436l-5.615 4.57a2.962 2.962 0 01-2.837.507c-.615-.2-3.624-1.22-4.15-1.404a1.5 1.5 0 01.97-2.837c.775.26 3.33 1.14 4.136 1.419l7.496-6.107V37.847l-5.615 4.57c-1.355 1.283-3.426.32-4.912-.195l-2.076-.701a1.5 1.5 0 01.97-2.837z" fill="#A9A9A9"/></svg>