<svg width="90" height="90" fill="none" xmlns="http://www.w3.org/2000/svg"><path d="M59.437 12.613l.777 2.074.776-2.074a6.466 6.466 0 013.791-3.79l2.063-.776-2.063-.776a6.468 6.468 0 01-3.787-3.791l-.777-2.074-.78 2.074a6.467 6.467 0 01-3.787 3.791l-2.074.776 2.074.777a6.466 6.466 0 013.787 3.79zm14.395 7.626l.587 1.571.581-1.571a4.898 4.898 0 012.874-2.875l1.572-.588-1.572-.59A4.898 4.898 0 0175 13.314l-.589-1.572-.587 1.572a4.91 4.91 0 01-2.874 2.874l-1.573.589 1.573.588a4.911 4.911 0 012.882 2.875zm8.784-8.73l.587 1.573.59-1.573a4.908 4.908 0 012.873-2.875l1.572-.586-1.572-.59a4.9 4.9 0 01-2.874-2.874l-.589-1.57-.587 1.57a4.909 4.909 0 01-2.874 2.875l-1.573.589 1.573.586a4.92 4.92 0 012.874 2.875zm-7.839 71.278v3.906a1.9 1.9 0 001.91 1.9H84a1.902 1.902 0 001.901-1.9v-7.528a12.335 12.335 0 01-9.255 3.622h-1.87zM3.998 79.054v7.638a1.901 1.901 0 001.9 1.902h7.313a1.901 1.901 0 001.902-1.901v-3.906h-1.754a12.288 12.288 0 01-9.361-3.733zm.054-7.616c0 5.388 3.75 8.529 9.307 8.529h63.283c5.55 0 9.308-3.14 9.308-8.53v-1.556H4.052v1.557zm82.76-34.688l-4.687-.814a1.687 1.687 0 00-1.841.998l-1.46 3.298-.592-.904-4.11-9.703a10.064 10.064 0 00-7.678-6.03A138.337 138.337 0 0045 22.03a138.28 138.28 0 00-21.443 1.572 10.065 10.065 0 00-7.687 6.03l-4.1 9.688-.584.89-1.468-3.285a1.687 1.687 0 00-1.841-.997l-4.69.823a1.845 1.845 0 00-1.55 1.825v.92a1.852 1.852 0 001.457 1.81l6.42 1.468-3.075 4.687a14.565 14.565 0 00-2.385 7.988v11.625H85.95V55.448c0-2.839-.83-5.615-2.387-7.988l-3.086-4.71 6.431-1.45a1.853 1.853 0 001.457-1.809v-.92a1.845 1.845 0 00-1.553-1.82zm-68.345-6.02A7.212 7.212 0 0124 26.378a135.75 135.75 0 0121-1.536c7.029-.033 14.05.48 21 1.536a7.216 7.216 0 015.53 4.35l3.159 7.45H15.307l3.16-7.448zm-5.965 27.187a2.78 2.78 0 01-2.304-2.11 6.088 6.088 0 01-.197-1.94c.152-1.688.683-2.518 1.755-2.518 0 0 7.354.457 8.348.763.993.306 4.807 7.556 4.807 7.556l-12.409-1.751zM59.61 60.73l-14.7.84-14.52-.82-3.703-7.854s13.044 1.136 18.311 1.136c5.267 0 18.315-1.136 18.315-1.136L59.61 60.73zm20.19-4.915a2.78 2.78 0 01-2.304 2.11l-12.41 1.75s3.816-7.25 4.81-7.555c.994-.306 8.346-.764 8.346-.764 1.074 0 1.603.838 1.755 2.518a6.088 6.088 0 01-.197 1.941z" fill="#A9A9A9"/></svg>