<svg width="86" height="82" fill="none" xmlns="http://www.w3.org/2000/svg"><path d="M20.229 51.988c.248-.158.521-.317.825-.476a37.173 37.173 0 01-1.96-11.846V17.375a1.406 1.406 0 011.223-1.394 63.083 63.083 0 0022.01-7.171 1.406 1.406 0 011.345 0 63.102 63.102 0 0022.012 7.171 1.406 1.406 0 011.222 1.394v22.29a37.336 37.336 0 01-5.33 19.172l1.1.6 6.127.945a44.298 44.298 0 005.135-20.716V9.487A56.346 56.346 0 0143.669.641L43 .219l-.67.422a56.343 56.343 0 01-30.267 8.846v30.178a44.315 44.315 0 002.76 15.406l5.406-3.083z" fill="#A9A9A9"/><path d="M43 11.636a65.87 65.87 0 01-21.094 6.957v21.073a34.406 34.406 0 001.775 10.845 42.049 42.049 0 0110.924-1.073 35.727 35.727 0 0115.286 3.024l9.212 5.028a34.546 34.546 0 004.99-17.824V18.593A65.893 65.893 0 0143 11.636zm0 29.122l-3.637 3.637a2.812 2.812 0 01-3.976 0l-7.856-7.856 4.219-4.218 5.625 5.625L43 32.32l11.25-11.25 4.219 4.218L43 40.76zM17.688 81.781a5.625 5.625 0 100-11.25 5.625 5.625 0 000 11.25z" fill="#A9A9A9"/><path d="M84.85 70.911l-1.11-3.614a1.414 1.414 0 00-.1-.21 4.78 4.78 0 00-3.853-2.166L61.9 62.164a.671.671 0 01-.253-.084l-13.092-7.144a33.06 33.06 0 00-13.95-2.686c-9.506 0-11.94 1.519-12.98 2.18l-7.819 4.472a2.844 2.844 0 01-1.434.38H7.9c-2.883 0-4.922 1.954-5.583 5.287L.897 70.25a4.388 4.388 0 001.012 3.713 6.1 6.1 0 004.585 2.194H9.25a8.437 8.437 0 0116.875 0h32.344a8.437 8.437 0 1116.875 0h6.131a3.713 3.713 0 003.375-5.246zm-51.651-9.675c-5.386-.295-10.815-.703-15.61-1.265l5.527-3.164c.717-.45 2.573-1.604 10.083-1.73v6.16zm2.812.155v-6.3c3.848.02 7.654.81 11.194 2.32l8.451 4.613c-5.006-.085-12.164-.254-19.645-.633z" fill="#A9A9A9"/><path d="M66.906 81.781a5.625 5.625 0 100-11.25 5.625 5.625 0 000 11.25z" fill="#A9A9A9"/></svg>