<svg width="90" height="90" fill="none" xmlns="http://www.w3.org/2000/svg"><path d="M27.028 39.908A26.85 26.85 0 0143.5 33.077v-15.04A41.85 41.85 0 0016.4 29.28l10.628 10.628zM45 49.5A10.5 10.5 0 1055.5 60 10.514 10.514 0 0045 49.5zm-6 9V57a1.5 1.5 0 113 0v1.5a1.5 1.5 0 11-3 0zm10.471 7a6 6 0 01-8.942 0 1.502 1.502 0 01.107-2.128 1.5 1.5 0 012.127.127 3.1 3.1 0 004.474 0 1.502 1.502 0 012.48.344 1.5 1.5 0 01-.245 1.657zm1.529-7a1.5 1.5 0 11-3 0V57a1.5 1.5 0 113 0v1.5zm-46.5 3h12A1.5 1.5 0 0018 60a26.859 26.859 0 016.907-17.972L14.28 31.401A41.833 41.833 0 003 60a1.5 1.5 0 001.5 1.5zm65.65-28.771l3.45-3.45a41.85 41.85 0 00-27.1-11.241v15.02a26.607 26.607 0 0113.52 4.558l7.807-4.596a2.987 2.987 0 012.323-.291zM49.517 47.293A13.543 13.543 0 0157.71 55.5l11.687-19.845-19.881 11.638zm22.756-12.445a3 3 0 01-.29 2.319l-4.6 7.812A26.643 26.643 0 0172 59.999a1.5 1.5 0 001.5 1.5h12A1.5 1.5 0 0087 60a41.833 41.833 0 00-11.28-28.598l-3.447 3.447z" fill="#A9A9A9"/></svg>