<svg width="82" height="90" fill="none" xmlns="http://www.w3.org/2000/svg"><path d="M25.448 73.84L18.13 62.082l-6.619 1.848C5.101 65.73.632 71.642.632 78.29v9.824C.632 89.151 1.48 90 2.517 90h29.587l1.424-12.964a7.247 7.247 0 01-8.08-3.197zm45.039-9.92l-6.609-1.847-7.316 11.776c-1.803 2.894-5.265 4.016-8.09 3.177L49.896 90h29.586a1.891 1.891 0 001.886-1.886V78.29c0-6.647-4.469-12.559-10.88-14.37z" fill="#A9A9A9"/><path d="M48.374 72.901a3.521 3.521 0 004.982-1.046l5.698-9.176-7.739-4.785-10.305 9.958h-.015l-.956.653.953-.652-10.304-9.96-7.741 4.786 5.7 9.175a3.52 3.52 0 004.98 1.047l.973-.667 2.925 2.925-1.48 13.464h9.91l-1.48-13.455 2.93-2.931.97.664zM18.14 16.363a5.616 5.616 0 014.083-1.744h37.535c1.593 0 3.055.66 4.092 1.753.031-.105 1.372-2.169.462-4.714-1.374-3.865-4.441-3.3-21.063-11.191a5.606 5.606 0 00-4.48 0c-16.877 8.009-19.702 7.35-21.072 11.182-.929 2.598.41 4.599.443 4.714zm41.618 2.027H22.223c-.867 0-1.622.585-1.83 1.434-.577 2.325-.64 3.893-.64 5.95 0 1.32.523 2.603 1.684 3.58.445 15.38 5.52 20.215 12.393 26.053a8.261 8.261 0 005.364 1.98h3.64c1.965 0 3.87-.703 5.362-1.978 6.715-5.723 11.874-10.365 12.372-26.063a4.747 4.747 0 001.688-3.639c0-1.66 0-3.215-.67-5.893a1.876 1.876 0 00-1.828-1.423zm-14.01 34.15a4.487 4.487 0 01-2.914 1.076h-3.64a4.489 4.489 0 01-2.918-1.08c-5.41-4.59-10.345-8.28-11.025-22.067h.158l4.422 4.29a10.204 10.204 0 007.147 2.894h8.062a10.23 10.23 0 007.137-2.885l4.44-4.3h.134c-.686 13.198-5.027 16.983-11.003 22.072z" fill="#A9A9A9"/></svg>