<svg width="43" height="82" fill="none" xmlns="http://www.w3.org/2000/svg"><path d="M8.128 68.974a.887.887 0 00-.373.152L1.08 73.837a.894.894 0 00-.119 1.36l5.613 5.668a.894.894 0 101.271-1.258l-4.87-4.918 5.812-4.102a.894.894 0 00-.66-1.613z" fill="#BA945E"/><path fill-rule="evenodd" clip-rule="evenodd" d="M5.138 75.051c0 .524.425.95.949.936.168-.004.336-.01.504-.016.515-.021.919-.387.919-.903v-.074a.97.97 0 00-.97-.97h-.023c-.135.005-.27.01-.405.013a.996.996 0 00-.974.989v.025zm0-74.077c0 .538.437.973.974.989.135.003.27.008.405.013l.095-.005a.95.95 0 00.898-.947V.969a.94.94 0 00-.919-.94 36.049 36.049 0 00-.504-.017.93.93 0 00-.949.937v.025zm5.32-.58a.954.954 0 00-1.083.843.996.996 0 00.848 1.092c.267.04.532.083.797.13a.996.996 0 001.153-.783A.953.953 0 0011.41.55a36.076 36.076 0 00-.952-.155zm5.667 1.32a.952.952 0 00-1.205.663.994.994 0 00.664 1.205c.26.083.518.169.775.258a.993.993 0 001.263-.593.952.952 0 00-.574-1.225c-.307-.107-.614-.21-.923-.308zm5.392 2.212a.95.95 0 00-1.294.467.99.99 0 00.464 1.286c.248.125.493.253.738.385a.99.99 0 001.34-.388.949.949 0 00-.374-1.292c-.29-.157-.58-.31-.874-.458zm4.986 3.05a.946.946 0 00-1.349.258.987.987 0 00.256 1.334c.23.167.457.336.682.508a.986.986 0 001.38-.173.945.945 0 00-.165-1.327 37.08 37.08 0 00-.804-.6zm4.458 3.81a.943.943 0 00-1.368.044.983.983 0 00.044 1.35 35.615 35.615 0 01.608.625.981.981 0 001.385.045.942.942 0 00.044-1.331 37.935 37.935 0 00-.713-.734zm3.823 4.476a.94.94 0 00-1.353-.169.978.978 0 00-.167 1.336c.175.24.347.483.515.728a.977.977 0 001.354.26.938.938 0 00.251-1.305 37.97 37.97 0 00-.6-.85zm3.093 5.034a.936.936 0 00-1.303-.377.974.974 0 00-.373 1.29c.139.27.274.542.405.816a.973.973 0 001.29.466.935.935 0 00.45-1.247 38.797 38.797 0 00-.469-.948zm2.29 5.467a.934.934 0 00-1.221-.572.971.971 0 00-.57 1.215c.097.293.19.587.28.882a.97.97 0 001.193.658.933.933 0 00.64-1.162c-.102-.342-.21-.682-.322-1.021zm1.431 5.768a.932.932 0 00-1.11-.752.97.97 0 00-.755 1.113c.052.307.1.615.143.923a.968.968 0 001.07.832.931.931 0 00.817-1.05c-.05-.356-.105-.712-.165-1.066zm.536 5.927a.93.93 0 00-.974-.912.968.968 0 00-.922.985 36.671 36.671 0 010 .938.968.968 0 00.922.985.93.93 0 00.974-.912 39.096 39.096 0 000-1.084zm-.371 5.944a.931.931 0 00-.817-1.05.968.968 0 00-1.07.833 36.91 36.91 0 01-.143.923.969.969 0 00.754 1.113.932.932 0 001.111-.752c.06-.354.115-.71.165-1.067zm-1.273 5.814a.933.933 0 00-.641-1.162.97.97 0 00-1.193.658c-.09.295-.183.59-.28.882a.971.971 0 00.57 1.215.934.934 0 001.221-.572c.112-.339.22-.68.323-1.021zm-2.143 5.54a.935.935 0 00-.452-1.247.973.973 0 00-1.289.466c-.131.274-.266.545-.405.816a.974.974 0 00.373 1.29.936.936 0 001.303-.377c.161-.313.318-.63.47-.948zm-2.963 5.132a.938.938 0 00-.25-1.304.977.977 0 00-1.355.26c-.168.244-.34.487-.515.727a.978.978 0 00.167 1.336.94.94 0 001.353-.17c.204-.28.404-.563.6-.85zm-3.71 4.593a.942.942 0 00-.044-1.33.981.981 0 00-1.385.044 34.729 34.729 0 01-.608.624.983.983 0 00-.044 1.351.943.943 0 001.368.045 38.093 38.093 0 00.713-.734zm-4.367 3.943a.946.946 0 00.166-1.327.986.986 0 00-1.38-.173c-.226.172-.454.341-.683.508a.987.987 0 00-.256 1.334.946.946 0 001.35.259c.27-.197.537-.397.803-.6zm-4.916 3.192a.949.949 0 00.373-1.292.99.99 0 00-1.34-.388c-.244.131-.49.26-.737.385a.991.991 0 00-.464 1.286.95.95 0 001.294.467c.293-.149.585-.301.874-.458zm-5.343 2.362a.951.951 0 00.574-1.225.993.993 0 00-1.263-.593c-.258.089-.516.175-.775.258a.994.994 0 00-.664 1.204.952.952 0 001.205.664c.309-.099.616-.201.923-.308zM11.41 75.45a.953.953 0 00.763-1.126.996.996 0 00-1.153-.782c-.265.046-.53.09-.797.13a.994.994 0 00-.848 1.091.954.954 0 001.083.842c.319-.047.636-.099.952-.155z" fill="#BA945E"/></svg>