<svg width="85" height="45" fill="none" xmlns="http://www.w3.org/2000/svg"><path d="M13.436 35.86a.915.915 0 01-.156.385L8.42 43.13a.922.922 0 01-1.403.123l-5.847-5.79a.922.922 0 111.298-1.311l5.073 5.023 4.232-5.995a.922.922 0 011.663.68z" fill="#BA945E"/><path fill-rule="evenodd" clip-rule="evenodd" d="M7.583 39a.98.98 0 01-.987-1c.005-.177.01-.354.018-.531.02-.543.408-.969.951-.969h.04a1.007 1.007 0 011.007 1.007v.04L8.597 38c-.015.552-.461 1-1.013 1zm76 0c-.552 0-.998-.448-1.013-1l-.015-.453.006-.114a.984.984 0 01.983-.933h.02a.99.99 0 01.99.969l.017.531a.98.98 0 01-.987 1zm.6-5.576a.98.98 0 01-.863 1.11 1.022 1.022 0 01-1.124-.874c-.043-.3-.09-.598-.141-.895a1.022 1.022 0 01.798-1.178.98.98 0 011.164.788c.06.349.115.699.166 1.05zm-1.348-5.97a.98.98 0 01-.678 1.231 1.021 1.021 0 01-1.247-.687c-.09-.288-.183-.576-.28-.862a1.021 1.021 0 01.605-1.288.98.98 0 011.272.596c.114.335.224.672.328 1.01zm-2.264-5.684a.98.98 0 01-.478 1.32 1.021 1.021 0 01-1.34-.483c-.133-.27-.27-.54-.41-.807a1.021 1.021 0 01.395-1.368.98.98 0 011.35.39c.166.314.326.63.483.948zm-3.126-5.262a.98.98 0 01-.265 1.38c-.46.307-1.08.183-1.399-.268a37.53 37.53 0 00-.532-.733 1.021 1.021 0 01.177-1.412.98.98 0 011.394.174c.212.284.42.57.625.86zm-3.91-4.707a.98.98 0 01-.047 1.405 1.021 1.021 0 01-1.423-.046 38.706 38.706 0 00-.641-.642 1.021 1.021 0 01-.046-1.423.98.98 0 011.404-.046 40.352 40.352 0 01.752.752zm-4.6-4.038a.98.98 0 01.174 1.395c-.342.433-.97.507-1.413.177a37.934 37.934 0 00-.732-.533 1.021 1.021 0 01-.269-1.398.98.98 0 011.38-.265c.29.204.576.412.86.624zm-5.174-3.268a.98.98 0 01.39 1.35 1.02 1.02 0 01-1.367.396 36.81 36.81 0 00-.808-.411 1.021 1.021 0 01-.483-1.34.98.98 0 011.32-.477c.319.156.634.317.948.482zM58.14 2.076a.98.98 0 01.596 1.273 1.021 1.021 0 01-1.289.604c-.286-.096-.573-.19-.861-.28a1.021 1.021 0 01-.688-1.246.98.98 0 011.23-.68c.34.106.676.215 1.012.33zM52.209.566a.98.98 0 01.788 1.164 1.022 1.022 0 01-1.178.799c-.298-.05-.596-.098-.895-.142a1.021 1.021 0 01-.874-1.124A.98.98 0 0151.16.4c.35.051.7.107 1.049.167zM46.115.005a.98.98 0 01.96 1.025c-.021.552-.486.98-1.038.974a37.203 37.203 0 00-.907 0 1.021 1.021 0 01-1.039-.974.98.98 0 01.96-1.025 39.047 39.047 0 011.064 0zM40.008.4a.98.98 0 011.109.863 1.022 1.022 0 01-.874 1.124c-.299.044-.597.091-.895.142a1.021 1.021 0 01-1.178-.799.98.98 0 01.788-1.163c.349-.06.699-.116 1.05-.167zm-5.97 1.348a.98.98 0 011.23.679c.15.531-.16 1.082-.687 1.247-.288.09-.575.183-.861.28a1.021 1.021 0 01-1.289-.605.98.98 0 01.596-1.273c.336-.114.673-.223 1.011-.328zm-5.685 2.265a.98.98 0 011.321.478 1.021 1.021 0 01-.483 1.339c-.271.133-.54.27-.807.41a1.021 1.021 0 01-1.368-.395.98.98 0 01.39-1.35c.314-.165.63-.326.947-.482zm-5.261 3.126a.98.98 0 011.38.265 1.02 1.02 0 01-.269 1.398c-.246.175-.49.352-.732.533a1.023 1.023 0 01-1.413-.177.98.98 0 01.174-1.395c.284-.212.57-.42.86-.624zm-4.707 3.91a.98.98 0 011.404.046 1.021 1.021 0 01-.046 1.423 37.21 37.21 0 00-.641.641 1.021 1.021 0 01-1.423.047.98.98 0 01-.046-1.405 40.352 40.352 0 01.752-.752zm-4.038 4.6a.98.98 0 011.394-.174c.434.341.507.97.177 1.412-.18.242-.358.487-.532.733-.32.45-.94.575-1.398.268a.98.98 0 01-.266-1.38c.204-.289.413-.575.625-.86zm-3.268 5.173a.98.98 0 011.35-.39c.481.27.652.879.395 1.368-.14.267-.277.537-.41.807a1.022 1.022 0 01-1.34.484.98.98 0 01-.478-1.321c.157-.318.318-.634.483-.948zM8.66 26.444a.98.98 0 011.272-.596c.518.19.782.765.605 1.288-.097.286-.19.574-.28.862a1.021 1.021 0 01-1.247.687.98.98 0 01-.679-1.23c.105-.339.215-.676.329-1.011zm-1.51 5.93a.98.98 0 011.164-.788c.541.108.892.635.798 1.179-.05.297-.098.596-.141.895-.08.546-.576.938-1.124.873a.98.98 0 01-.863-1.109 39 39 0 01.166-1.05z" fill="#BA945E"/></svg>