<svg width="73" height="57" fill="none" xmlns="http://www.w3.org/2000/svg"><path d="M22.964 44.01v-.011l1.361-6.286-14.186-4.89L0 50.586l20.243 5.948 2.709-12.463c0-.013 0-.037.012-.061zm2.975-13.764l-12.067-3.95-2.516 4.396 13.475 4.648 1.108-5.094zm30.647 15.775l-3.07-10.355-8.189-2.53-8.261 2.963v6.299c0 .59-.434 1.096-1.024 1.191l-10.91 1.758-2.384 11.018 24.53-6.755c.205-.06.423-.06.627-.013l10.548 2.782-1.818-6.178c-.012-.059-.036-.12-.049-.18zm13.74 4.841l-10.765-3.24 1.625 5.48L73 56.21l-2.674-5.347zM43.135 24.177a107.33 107.33 0 001.807 2.793c.494-.734 1.047-1.588 1.65-2.516 0-.024 0-.036.012-.048a5.79 5.79 0 01.229-.349c3.083-4.938 6.876-11.729 6.876-14.823 0-4.841-3.938-8.767-8.767-8.767-4.841 0-8.778 3.926-8.778 8.767 0 3.046 3.685 9.67 6.743 14.583.096.095.168.215.228.36zM39.402 8.943a5.548 5.548 0 015.539-5.54c3.046 0 5.54 2.493 5.54 5.54a5.548 5.548 0 01-5.54 5.539 5.539 5.539 0 01-5.54-5.54z" fill="#A9A9A9"/><path d="M60.103 30.415L48.242 26.31a119.688 119.688 0 01-2.312 3.493 1.22 1.22 0 01-.988.518c-.397 0-.771-.193-.988-.518a96.358 96.358 0 01-2.48-3.734l-13.09 4.3-1.47 6.755c-.012.06-.024.121-.048.193l-1.18 5.515 8.97-1.458v-6.13c0-.505.313-.963.796-1.131l9.453-3.372c.241-.095.506-.095.759-.024l9.176 2.843c.386.108.687.42.795.806l3.107 10.5 10.104 3.036-8.743-17.486z" fill="#A9A9A9"/></svg>