<svg width="73" height="73" fill="none" xmlns="http://www.w3.org/2000/svg"><path d="M14.326 49.26c.092.076.061 1.034.061-8.487h-1.209a2.783 2.783 0 00-2.76 2.48l-.532 4.904a4.714 4.714 0 014.44 1.103zm-5.421 8.113l-.358 3.369a2.775 2.775 0 002.76 3.041h3.453c-1.909-1.133-2.388-1.97-5.855-6.41zm49.708-8.06a4.7 4.7 0 014.502-1.156l-.525-4.905a2.783 2.783 0 00-2.76-2.479h-1.217v8.54zm-.373 14.501h3.453a2.776 2.776 0 002.76-3.041l-.357-3.37c-3.14 3.993-3.863 5.194-5.856 6.411zM15.908 49.837c-.002.341.039.681.122 1.012 1.049.98 1.688 1.756 3.155 1.878l4.684-30.865a5.36 5.36 0 015.323-4.563h14.616a5.361 5.361 0 015.323 4.563l4.684 30.865c1.475-.122 2.114-.905 3.155-1.878.175-.677.122.639.122-19.353 0-6.418 1.095-10.547 2.51-17.542a7.529 7.529 0 00-3.666-8.023 39.253 39.253 0 00-38.872 0 7.551 7.551 0 00-3.665 8.03c2.973 14.73 2.509 10.19 2.509 35.876zM27.884 12.06l.723-3.642a2.281 2.281 0 012.281-1.863h11.24a2.281 2.281 0 012.28 1.863l.723 3.642a2.282 2.282 0 01-2.282 2.753H30.16a2.281 2.281 0 01-2.274-2.753z" fill="#A9A9A9"/><path d="M47.625 22.09a3.863 3.863 0 00-3.802-3.277h-14.63a3.863 3.863 0 00-3.803 3.277l-4.669 30.652H32.22V47.55a6.927 6.927 0 01-1.886-8.646C25.565 28.5 25.497 28.4 25.527 28.477a.76.76 0 01.692-1.102h8.25l2.031 4.44 2.03-4.44h8.258a.76.76 0 01.685 1.087c-.814 1.696.068-.213-4.806 10.426a6.935 6.935 0 01-1.886 8.645v5.194H52.28L47.625 22.09z" fill="#A9A9A9"/><path d="M13.239 60.446a8.774 8.774 0 006.92 3.368h32.698a8.776 8.776 0 006.92-3.368l4.562-5.863a3.133 3.133 0 00-4.616-4.22l-2.692 2.501a5.202 5.202 0 01-3.543 1.4H40.78v3.421h1.4a2.35 2.35 0 012.334 1.825 2.28 2.28 0 01-2.236 2.738H30.82a2.35 2.35 0 01-2.334-1.818 2.282 2.282 0 012.236-2.745h1.52v-3.422H19.498a5.201 5.201 0 01-3.528-1.399l-2.677-2.502a3.133 3.133 0 00-4.616 4.22l4.563 5.864zm33.071 4.889l-1.225 3.102a.76.76 0 01-.707.48H28.622a.76.76 0 01-.707-.48l-1.224-3.102c-7.011 0-8.106.205-10.456-.76l1.627 4.136a5.567 5.567 0 005.179 3.528H49.96a5.565 5.565 0 005.178-3.52l1.627-4.137c-1.245.51-2.578.768-3.923.76l-6.532-.007z" fill="#A9A9A9"/><path d="M43.861 67.403l.814-2.068h-16.35l.814 2.068h14.722zM33.74 48.446v9.239h2v-8.707a6.532 6.532 0 01-2-.532zm3.52.532v8.707h2v-9.24a6.53 6.53 0 01-2 .533zm-7.3-20.083h-2.54c.13.274.305.654 3.917 8.54a7.24 7.24 0 011.695-1.376c-3.3-7.506-3.072-6.913-3.072-7.163zm4.92 6.449c.312-.692.13-.29.76-1.711l-2.144-4.738h-1.939l2.875 6.548a4.53 4.53 0 01.448-.1zm1.765-.198c.652.014 1.3.118 1.923.312l2.875-6.563h-1.901l-2.898 6.251zm8.935-6.251h-2.54c0 .236.19-.266-3.042 7.164a7.24 7.24 0 011.696 1.376c3.581-7.87 3.756-8.25 3.886-8.54zM30.72 59.206a.76.76 0 100 1.52h11.56a.76.76 0 100-1.52H30.72zm5.72-22.539a5.498 5.498 0 00-5.362 5.323 5.422 5.422 0 105.361-5.323zm.06 7.658a2.243 2.243 0 112.236-2.236 2.236 2.236 0 01-2.236 2.236z" fill="#A9A9A9"/></svg>