<svg width="73" height="78" fill="none" xmlns="http://www.w3.org/2000/svg"><path d="M32.339 31.024a1.535 1.535 0 001.545-1.533v-2.787c0-.851-.681-1.533-1.533-1.533-.852 0-1.533.682-1.533 1.534v2.786c0 .84.67 1.52 1.52 1.533zm-2.203.973s-4.947 7.045-5.037 7.179l1.618-.56a.939.939 0 011.022.304l1.193 1.533 2.263-7.811a3.139 3.139 0 01-1.059-.645zm40.068 7.239c-3-1.338-7.885-1.969-12.265-2.153-.954.286-3.276 1.64-4.903 1.654-3.168.028-7.48.164-11.219.426.367.66 1.492 1.57.876 2.336-.243.317-.657.45-1.022.317L38.01 40.55s-1.959 2.519-1.996 2.543v8.03H51.88c-1.75-4.511 1.825-9.695 6.655-9.6 3.918 0 7.094 3.2 7.094 7.143-.013.844-.138 1.7-.45 2.47h3.978c1.947 0 3.541-1.606 3.541-3.577v-4.454a4.258 4.258 0 00-2.494-3.869zm-32.22-.62l1.619.56c.003-.005-5.038-7.179-5.038-7.179-.304.28-.657.499-1.058.645l2.263 7.811 1.192-1.533c.244-.304.657-.425 1.022-.304zm.183-4.66l2.41 3.43c3.084-.128 6.639-.363 9.575-.4 1.118-.084 2.189.08 3.249-.147-1.29-.864-5.257-3.31-10.647-5.256a2.237 2.237 0 01-.049.28c-.387 1.965-2.798 3.05-4.538 2.093zM35.71 29.49c0 .195-.013.39-.05.584l3.213 2.178c.728.535 1.87.093 2.044-.779.436-1.914 1.38-9.649-1.935-7.981l-3.395 2.3c.2.605.103 3.031.122 3.698zm-11.45 7.715l2.275-3.25a3.176 3.176 0 01-2.64.123c-1.66-.587-2.047-2.404-2.203-3.943-4.867 1.339-8.468 3.48-9.794 4.344 3.314 1.797 5.637 1.978 12.361 2.726z" fill="#A9A9A9"/><path d="M23.615 30.573c.05.307.103.594.17.9.157.879 1.329 1.31 2.044.78l3.212-2.179c-.069-.903-.135-3.429.073-4.283l-3.394-2.3c-3.129-1.605-2.404 5.285-2.105 7.082zm-7.69 12.777c-6.96.24-6.987 10.379 0 10.633 6.962-.22 6.962-10.414 0-10.634zm0 8.662c-4.402-.121-4.388-6.586 0-6.704 4.389.118 4.4 6.584 0 6.704z" fill="#A9A9A9"/><path d="M15.925 47.133c-1.979.036-1.99 3.023 0 3.054 1.987-.037 1.976-3.012 0-3.054zm42.61-3.783c-6.931.207-6.997 10.396 0 10.633 6.962-.22 6.962-10.414 0-10.634zm0 8.662c-4.401-.121-4.388-6.586 0-6.704 4.389.118 4.4 6.584 0 6.704z" fill="#A9A9A9"/><path d="M58.535 47.133c-1.976.042-1.986 3.017 0 3.054 1.987-.037 1.976-3.012 0-3.054zM26.693 40.55l-3.662 1.266a.906.906 0 01-1.022-.317.894.894 0 01-.012-1.07l1.058-1.51c-5.176-.495-9.432-1.346-11.17-2.408-.917-.299-1.835-1.044-2.214-1.825H5.473c-1.752 0-3.188 1.435-3.188 3.212v3.832c-.649 1.004-2.12 2.495-1.983 3.81v2.458c0 .438.329.827.767.9l7.92 1.278c-1.61-10.35 13.433-11.983 14.03-1.51-.013.84-.144 1.692-.438 2.459h6.108c-.005-1.183.003-6.733 0-8.03-.037-.025-1.996-2.544-1.996-2.544zm3.809 1.035c.023.102.012 9.539.012 9.539h3.674v-9.466c0-.025 0-.049.013-.073l-1.85-6.376-1.85 6.376z" fill="#A9A9A9"/></svg>