<svg width="146" height="51" fill="none" xmlns="http://www.w3.org/2000/svg"><g clip-path="url(#clip0_222_269)"><mask id="a" style="mask-type:luminance" maskUnits="userSpaceOnUse" x="106" y="0" width="40" height="51"><path d="M106.217.618h39.65v49.407h-39.65V.619z" fill="#fff"/></mask><g mask="url(#a)"><path d="M145.869 25.073c-.077-1.577-1.127-2.938-2.42-3.76-10.189-6.516-20.377-13.037-30.569-19.547-1.178-.776-2.675-1.247-4.065-.81-1.7.484-2.584 2.33-2.519 4-.015 13.54-.011 27.078-.023 40.617-.019 1.474.6 3.107 1.994 3.787 1.445.746 3.19.3 4.493-.537 10.198-6.494 20.394-12.995 30.588-19.49 1.459-.887 2.648-2.487 2.521-4.26z" fill="url(#paint0_linear_222_269)"/></g><mask id="b" style="mask-type:luminance" maskUnits="userSpaceOnUse" x="110" y="32" width="9" height="19"><path d="M110.797 32.239h7.411v18.28h-7.411V32.24z" fill="#fff"/></mask><g mask="url(#b)"><mask id="c" style="mask-type:luminance" maskUnits="userSpaceOnUse" x="97" y="-1" width="51" height="52"><path d="M97.146 18.443L127.984-.025l19.228 32.11-30.837 18.467-19.229-32.109z" fill="#fff"/></mask><g mask="url(#c)"><mask id="d" style="mask-type:luminance" maskUnits="userSpaceOnUse" x="97" y="-1" width="51" height="52"><path d="M97.146 18.443L127.984-.025l19.228 32.11-30.837 18.467-19.229-32.109z" fill="#fff"/></mask><g mask="url(#d)"><mask id="e" style="mask-type:luminance" maskUnits="userSpaceOnUse" x="97" y="-1" width="51" height="52"><path d="M97.146 18.443L127.984-.025l19.228 32.11-30.837 18.467-19.229-32.109z" fill="#fff"/></mask><g mask="url(#e)"><path d="M115.41 37.301l.766 3.418-.602.417.314 1.4-.669.464.341 1.529.805.131.448 1.996.685.556-.245 2.288a.069.069 0 01-.031.049c-.019.008-.784.181-.784.181a.064.064 0 01-.069-.029l-1.199-1.963.381-.797-.429-1.91-.836-.135-.766-3.416.695-.483-.274-1.22-.834-.135-.33-1.474.695-.483-.778-3.466 1.262-.288.73 3.254.724.116zm-.415-4.956l-3.789.857a3.275 3.275 0 01-.274.048l2.837 12.636c.074.322.197.629.369.909l1.897 3.109a.457.457 0 00.488.204l.765-.173a.455.455 0 00.353-.396l.386-3.624a3.048 3.048 0 00-.056-.98l-2.835-12.63c-.049.013-.093.028-.141.04z" fill="#000"/></g></g></g></g><mask id="f" style="mask-type:luminance" maskUnits="userSpaceOnUse" x="105" y="18" width="14" height="15"><path d="M105.362 18.898h12.846v13.835h-12.846V18.899z" fill="#fff"/></mask><g mask="url(#f)"><mask id="g" style="mask-type:luminance" maskUnits="userSpaceOnUse" x="97" y="-1" width="51" height="52"><path d="M97.146 18.443L127.984-.025l19.228 32.11-30.837 18.467-19.229-32.109z" fill="#fff"/></mask><g mask="url(#g)"><mask id="h" style="mask-type:luminance" maskUnits="userSpaceOnUse" x="97" y="-1" width="51" height="52"><path d="M97.146 18.443L127.984-.025l19.228 32.11-30.837 18.467-19.229-32.109z" fill="#fff"/></mask><g mask="url(#h)"><mask id="i" style="mask-type:luminance" maskUnits="userSpaceOnUse" x="97" y="-1" width="51" height="52"><path d="M97.146 18.443L127.984-.025l19.228 32.11-30.837 18.467-19.229-32.109z" fill="#fff"/></mask><g mask="url(#i)"><path d="M114.352 27.794a2.381 2.381 0 01-1.799 2.84 2.37 2.37 0 01-2.839-1.79 2.38 2.38 0 011.799-2.84 2.37 2.37 0 012.839 1.79zm-1.397-4.101l-3.771.853a.892.892 0 01-1.071-.674l-.219-.969a.896.896 0 01.624-1.052 309.53 309.53 0 012.484-.569l1.384-.313a.893.893 0 011.071.674l.019.083a5.154 5.154 0 002.302-.567l-.445-1.02a1.948 1.948 0 00-2.218-1.117l-4.225.955-1.557.354-.249.056a1.96 1.96 0 00-1.527 1.966l.035 1.127c.05 1.712.266 3.416.641 5.088l.276 1.231a3.76 3.76 0 004.504 2.84l3.789-.858a3.777 3.777 0 002.854-4.504l-.278-1.234a26.14 26.14 0 00-.88-3.04 7.16 7.16 0 01-3.543.69z" fill="#000"/></g></g></g></g><mask id="j" style="mask-type:luminance" maskUnits="userSpaceOnUse" x="109" y="26" width="6" height="5"><path d="M109.809 26.31h4.447v3.952h-4.447V26.31z" fill="#fff"/></mask><g mask="url(#j)"><mask id="k" style="mask-type:luminance" maskUnits="userSpaceOnUse" x="97" y="-1" width="51" height="52"><path d="M97.146 18.443L127.984-.025l19.228 32.11-30.837 18.467-19.229-32.109z" fill="#fff"/></mask><g mask="url(#k)"><mask id="l" style="mask-type:luminance" maskUnits="userSpaceOnUse" x="97" y="-1" width="51" height="52"><path d="M97.146 18.443L127.984-.025l19.228 32.11-30.837 18.467-19.229-32.109z" fill="#fff"/></mask><g mask="url(#l)"><mask id="m" style="mask-type:luminance" maskUnits="userSpaceOnUse" x="97" y="-1" width="51" height="52"><path d="M97.146 18.443L127.984-.025l19.228 32.11-30.837 18.467-19.229-32.109z" fill="#fff"/></mask><g mask="url(#m)"><path d="M113.746 27.933a1.759 1.759 0 01-1.33 2.096 1.751 1.751 0 01-2.096-1.322 1.759 1.759 0 011.33-2.096 1.75 1.75 0 012.096 1.322z" fill="#000"/></g></g></g></g><mask id="n" style="mask-type:luminance" maskUnits="userSpaceOnUse" x="115" y="9" width="29" height="27"><path d="M115.738 9.017h27.668v26.186h-27.668V9.017z" fill="#fff"/></mask><g mask="url(#n)"><mask id="o" style="mask-type:luminance" maskUnits="userSpaceOnUse" x="97" y="-1" width="51" height="52"><path d="M97.146 18.443L127.984-.025l19.228 32.11-30.837 18.467-19.229-32.11z" fill="#fff"/></mask><g mask="url(#o)"><mask id="p" style="mask-type:luminance" maskUnits="userSpaceOnUse" x="97" y="-1" width="51" height="52"><path d="M97.146 18.443L127.984-.025l19.228 32.11-30.837 18.467-19.229-32.11z" fill="#fff"/></mask><g mask="url(#p)"><mask id="q" style="mask-type:luminance" maskUnits="userSpaceOnUse" x="97" y="-1" width="51" height="52"><path d="M97.146 18.443L127.984-.025l19.228 32.11-30.837 18.467-19.229-32.11z" fill="#fff"/></mask><g mask="url(#q)"><mask id="r" style="mask-type:luminance" maskUnits="userSpaceOnUse" x="113" y="4" width="33" height="36"><path d="M113.549 15.156L130.878 4.78l14.574 24.331-17.33 10.378-14.573-24.332z" fill="#fff"/></mask><g mask="url(#r)"><mask id="s" style="mask-type:luminance" maskUnits="userSpaceOnUse" x="113" y="4" width="33" height="36"><path d="M113.549 15.156l17.312-10.368 14.573 24.334-17.312 10.366-14.573-24.332z" fill="#fff"/></mask><g mask="url(#s)"><path d="M141.148 25.26a1.465 1.465 0 01-.175 1.68l-5.152 5.89a1.472 1.472 0 01-1.644.399 21.427 21.427 0 01-6.234-3.789l-1.953-1.704a21.319 21.319 0 01-4.601-5.655 1.467 1.467 0 01.176-1.681l5.151-5.886a1.476 1.476 0 011.646-.402 21.417 21.417 0 016.232 3.789l1.955 1.704a21.342 21.342 0 014.599 5.655zm-3.491-6.923l-5.491-4.785a23.108 23.108 0 00-6.718-4.085 3.158 3.158 0 00-3.534.86l-2.306 2.637a7.12 7.12 0 01.696 1.642l2.384-2.725a.724.724 0 011.021-.071l.808.706a.72.72 0 01.068 1.019l-4.254 4.864-.015.06-.184.11a.695.695 0 01-.212.084.7.7 0 01-.214.016.68.68 0 01-.209-.049c-.013-.003-.023-.01-.034-.015a.703.703 0 01-.176-.11l-.384-.332-.448-.392a.724.724 0 01-.046-1.001l.189-.215a5.15 5.15 0 00-.394-1.987l-1.441 1.646a3.146 3.146 0 00-.379 3.61c.157.277.319.55.485.82l.081.129c.031.05.064.096.094.146a23.528 23.528 0 004.3 5.003l5.491 4.786a23.16 23.16 0 006.721 4.084 3.153 3.153 0 003.531-.86l5.152-5.887a3.142 3.142 0 00.378-3.611 23.11 23.11 0 00-4.96-6.097z" fill="#000"/></g></g></g></g></g></g><mask id="t" style="mask-type:luminance" maskUnits="userSpaceOnUse" x="106" y="9" width="15" height="15"><path d="M106.35 9.511h14.329v13.834H106.35V9.511z" fill="#fff"/></mask><g mask="url(#t)"><mask id="u" style="mask-type:luminance" maskUnits="userSpaceOnUse" x="97" y="-1" width="51" height="52"><path d="M97.146 18.443L127.984-.025l19.228 32.11-30.837 18.467-19.229-32.109z" fill="#fff"/></mask><g mask="url(#u)"><mask id="v" style="mask-type:luminance" maskUnits="userSpaceOnUse" x="97" y="-1" width="51" height="52"><path d="M97.146 18.443L127.984-.025l19.228 32.11-30.837 18.467-19.229-32.109z" fill="#fff"/></mask><g mask="url(#v)"><mask id="w" style="mask-type:luminance" maskUnits="userSpaceOnUse" x="97" y="-1" width="51" height="52"><path d="M97.146 18.443L127.984-.025l19.228 32.11-30.837 18.467-19.229-32.109z" fill="#fff"/></mask><g mask="url(#w)"><path d="M109.953 10.773c-3.151 1.888-4.213 5.943-2.424 9.116l1.23-.278c-.041-.062-.083-.118-.122-.18-1.575-2.63-.71-6.056 1.928-7.635 2.639-1.58 6.066-.726 7.641 1.903a5.52 5.52 0 01.674 3.928l.662.577c.11.094.266.106.391.03l.045-.025a6.73 6.73 0 00-.745-5.124c-1.913-3.194-6.076-4.23-9.28-2.312zm6.325 10.561a5.572 5.572 0 01-5.126.313l-1.716.388a6.782 6.782 0 007.456.322c.156-.093.303-.197.448-.301-.23-.324-.452-.654-.664-.988a5.395 5.395 0 01-.398.266z" fill="#000"/></g></g></g></g><mask id="x" style="mask-type:luminance" maskUnits="userSpaceOnUse" x="121" y="14" width="20" height="19"><path d="M121.667 14.452h19.269v18.28h-19.269v-18.28z" fill="#fff"/></mask><g mask="url(#x)"><mask id="y" style="mask-type:luminance" maskUnits="userSpaceOnUse" x="97" y="-1" width="51" height="52"><path d="M97.146 18.443L127.984-.025l19.228 32.11-30.837 18.467-19.229-32.109z" fill="#fff"/></mask><g mask="url(#y)"><mask id="z" style="mask-type:luminance" maskUnits="userSpaceOnUse" x="97" y="-1" width="51" height="52"><path d="M97.146 18.443L127.984-.025l19.228 32.11-30.837 18.467-19.229-32.109z" fill="#fff"/></mask><g mask="url(#z)"><mask id="A" style="mask-type:luminance" maskUnits="userSpaceOnUse" x="97" y="-1" width="51" height="52"><path d="M97.146 18.443L127.984-.025l19.228 32.11-30.837 18.467-19.229-32.109z" fill="#fff"/></mask><g mask="url(#A)"><path d="M136.896 26.549a.347.347 0 00-.393.093l-1.376 1.573-.033.036a.347.347 0 00.033.49l.036.033a1.45 1.45 0 011.459-.31l.987-1.128a.342.342 0 00.077-.308.342.342 0 00-.207-.243l-.583-.236zm-9.567-7.975c-.648-.496-1.432-.575-1.8-.154-.369.423-.185 1.187.395 1.76l1.405-1.606zm10.646 8.384a.633.633 0 01-.143.571l-1.127 1.29-.098-.043a1.153 1.153 0 00-1.324.3l-.098.111-.253-.222a.642.642 0 01-.06-.909l.313-2.264a.148.148 0 01.129-.125l.623-.085a.148.148 0 11.041.293l-.514.07-.233 1.702 1.048-1.198a.647.647 0 01.729-.176l.583.237c.195.08.336.242.384.448zm-1.457 3.003a.608.608 0 01-.857.06.603.603 0 01-.056-.855.605.605 0 01.913.795zm1.755-7.39a.857.857 0 00-1.303-.01l-6.035 6.896a.856.856 0 00.185 1.288 20.504 20.504 0 003.374 1.704.62.62 0 00.694-.172l5.152-5.888a.624.624 0 00.079-.71 20.58 20.58 0 00-2.146-3.108zm-12.968-4.346c.482-.55 1.478-.473 2.258.156a.48.48 0 01.51.074l.586.511c.442.384.487 1.058.101 1.5l-.767.874a1.067 1.067 0 01-1.501.104l-.587-.511a.48.48 0 01-.143-.494c-.727-.687-.94-1.662-.457-2.214zm.255 6.546l6.033-6.895a.856.856 0 00-.187-1.288 20.587 20.587 0 00-3.362-1.696.623.623 0 00-.695.174l-5.151 5.886a.622.622 0 00-.078.712 20.443 20.443 0 002.137 3.096.858.858 0 001.303.011zm1.48-5.033a.476.476 0 01.668-.046.472.472 0 01.152.44l.197.172c.058.05.064.137.014.195l-.137.156a.138.138 0 01-.195.013l-.199-.171a.471.471 0 01-.5-.759zm-.353 1.482a.77.77 0 001.083-.075l.766-.874a.766.766 0 00-.072-1.081l-.586-.512a.189.189 0 00-.263.018l-1.53 1.752a.184.184 0 00.017.26l.585.512zm4.8 2.395a.473.473 0 01.82.392l.197.172a.14.14 0 01.013.197l-.137.156a.138.138 0 01-.195.012l-.198-.172a.47.47 0 01-.5-.757zm-.919.989l.587.511a.77.77 0 001.082-.075l.767-.877a.766.766 0 00-.074-1.08l-.584-.51a.187.187 0 00-.263.018l-1.426 1.628-.106.122a.186.186 0 00.017.263zm-2.262-.81c.475-.541 1.446-.474 2.22.126l1.333-1.524a.482.482 0 01.681-.047l.587.512c.44.384.485 1.055.099 1.497l-.767.877a1.062 1.062 0 01-1.499.102l-.587-.51a.484.484 0 01-.046-.68c-.647-.497-1.428-.578-1.797-.157-.392.448-.166 1.283.5 1.864a.15.15 0 01.013.21.147.147 0 01-.208.014c-.791-.689-1.027-1.714-.529-2.283zm8.044-2.1a.859.859 0 00-.071-1.201 18.91 18.91 0 00-.286-.255l-1.953-1.702c-.104-.091-.21-.182-.316-.269a.852.852 0 00-1.185.103l-6.362 7.27a.852.852 0 00.058 1.187c.102.093.205.185.309.276l1.955 1.704c.095.083.193.166.291.247a.86.86 0 001.199-.09l6.361-7.27z" fill="#000"/></g></g></g></g><path d="M64.773 36.32h2.671c.442 0 .765.1.965.3.201.201.301.524.301.966v.57c0 .352-.06.624-.177.82-.114.196-.3.323-.556.385l.795 1.397h-1.235l-.734-1.335h-.887v1.335h-1.143V36.32zm2.795 1.266c0-.251-.128-.379-.379-.379h-1.273v1.328h1.273c.251 0 .379-.125.379-.378v-.571zm5.45 3.172H69.49V36.32h3.528v.888h-2.386v.857h1.876v.888h-1.876v.919h2.386v.887zm4.524 0h-1.204l-1.528-2.663v2.663h-1.143V36.32h1.212l1.52 2.664V36.32h1.143v4.438zm3.067 0h-1.143v-3.55h-1.335v-.889h3.806v.888h-1.328v3.551zm2.715 0H82.09l1.683-4.439h1.266l1.683 4.44h-1.235l-.286-.796h-1.59l-.286.795zm.572-1.62h1.019l-.51-1.49-.51 1.49zm4.429.732h2.316v.888h-3.459V36.32h1.143v3.552zm8.385.827c-.941.08-1.725.123-2.346.123-.413 0-.717-.094-.912-.285-.196-.195-.293-.502-.293-.92v-2.03c0-.441.1-.764.301-.965.201-.2.521-.3.965-.3h2.285v.887h-2.03c-.253 0-.378.128-.378.379v2.03c0 .098.027.175.085.231a.285.285 0 00.216.085h.293c.108-.004.218-.007.332-.007.112-.004.226-.01.34-.016.118-.004.27-.011.455-.023.186-.015.413-.03.687-.046v.857zm1.45.061h-1.235l1.683-4.439h1.266l1.683 4.44h-1.235l-.286-.796h-1.59l-.286.795zm.571-1.62h1.02l-.51-1.49-.51 1.49zm3.287-2.818h2.671c.442 0 .764.1.965.3.201.201.301.524.301.966v.57c0 .352-.06.624-.178.82-.113.196-.299.323-.555.385l.795 1.397h-1.235l-.734-1.335h-.888v1.335h-1.142V36.32zm2.794 1.266c0-.251-.127-.379-.378-.379h-1.274v1.328h1.274c.251 0 .378-.125.378-.378v-.571z" fill="#D2C0C0"/><path d="M5.813 34.395H.077L7.874 13.79h5.89l7.798 20.605h-5.736l-1.328-3.683H7.141l-1.328 3.683zM8.47 26.89h4.709l-2.355-6.917L8.47 26.89zm19.861 3.382h10.746v4.123H23.035V13.79h5.296v16.482zM41.136 13.79h12.36c2.062 0 3.56.467 4.492 1.397.93.932 1.398 2.428 1.398 4.486v2.949c0 2.059-.468 3.555-1.398 4.485-.932.932-2.43 1.397-4.493 1.397h-7.064v5.89h-5.295V13.79zm12.954 5.883c0-1.174-.591-1.76-1.768-1.76h-5.89v6.477h5.89c1.177 0 1.768-.59 1.768-1.768v-2.95z" fill="#FEFDFD"/><path d="M41 14h12.36c2.063 0 3.56.467 4.493 1.397.93.932 1.397 2.428 1.397 4.486v2.949c0 2.059-.467 3.555-1.397 4.485-.933.932-2.43 1.397-4.493 1.397h-7.064v5.89H41V14zm12.954 5.883c0-1.174-.59-1.76-1.768-1.76h-5.89v6.476h5.89c1.178 0 1.768-.588 1.768-1.767v-2.95zm26.035 14.512h-5.304v-8.392h-7.357v8.392h-5.296V13.79h5.296v8.09h7.357v-8.09h5.304v20.605zm7.203 0h-5.736l7.797-20.605h5.89l7.798 20.605h-5.736l-1.328-3.683H88.52l-1.328 3.683zm2.656-7.504h4.71l-2.356-6.917-2.354 6.917z" fill="#FEFDFD"/></g><defs><linearGradient id="paint0_linear_222_269" x1="63.111" y1="4.908" x2="157.67" y2="4.908" gradientUnits="userSpaceOnUse"><stop stop-color="#67310A"/><stop offset="1" stop-color="#F0D683"/></linearGradient><clipPath id="clip0_222_269"><path fill="#fff" d="M0 0h146v50.396H0z"/></clipPath></defs></svg>