<svg width="94" height="84" fill="none" xmlns="http://www.w3.org/2000/svg"><path fill-rule="evenodd" clip-rule="evenodd" d="M74.478 30.474c.004.273.006.548 0 .822a29.81 29.81 0 01-2.349 11.087l3.452 3.93 12.95-14.751a21.1 21.1 0 004.657-8.755c.776-3.026.778-6.197.007-9.224a17.358 17.358 0 00-4.59-7.98A18.5 18.5 0 0075.582.254a18.5 18.5 0 00-13.024 5.35 17.849 17.849 0 00-1.69 1.935 28.053 28.053 0 016.224 4.878 11.09 11.09 0 014.478-3.182 11.156 11.156 0 0110.574 1.392 11.035 11.035 0 013.49 4.23 10.96 10.96 0 01-.7 10.576 11.063 11.063 0 01-4.019 3.74 11.147 11.147 0 01-6.436 1.302zm9.6 10.85c2.453.653 5.079 1.7 7.057 3.29 1.373 1.105 2.63 2.653 2.63 4.495 0 2.87-2.987 5-5.294 6.147-3.848 1.912-8.618 2.698-12.89 2.698-4.181 0-8.877-.738-12.686-2.59l3.794-4.32a31.936 31.936 0 003.97-5.644l3.754 4.268a1.552 1.552 0 001.166.528 1.562 1.562 0 001.169-.523l7.33-8.348zM57.923 61.023l-9.865 11.241a1.576 1.576 0 01-1.807.384 1.548 1.548 0 01-.527-.39l-9.869-11.236c-3.405.876-7.05 2.311-9.795 4.52-1.93 1.552-3.656 3.719-3.656 6.302 0 3.848 3.708 6.697 6.803 8.325C34.462 82.932 41 84 46.893 84c5.889 0 12.437-1.068 17.686-3.832 3.09-1.627 6.803-4.48 6.803-8.325 0-2.584-1.725-4.75-3.657-6.303-2.746-2.209-6.395-3.644-9.803-4.519l.001.001zm-27.03-5.659l-3.794-4.32A32.354 32.354 0 0123.12 45.4l-3.75 4.273a1.575 1.575 0 01-1.165.524 1.56 1.56 0 01-1.17-.528L9.71 41.325c-2.456.652-5.085 1.7-7.065 3.29C1.27 45.72.013 47.267.013 49.11c0 2.87 2.991 5 5.3 6.147 3.849 1.912 8.62 2.698 12.893 2.698 4.18 0 8.877-.742 12.687-2.59zm-4.2-42.944a11.088 11.088 0 00-4.478-3.182 11.155 11.155 0 00-10.573 1.393 11.034 11.034 0 00-3.489 4.23 10.958 10.958 0 00.702 10.574 11.06 11.06 0 004.019 3.738 11.145 11.145 0 006.429 1.303c-.006.274-.008.547-.004.82a29.489 29.489 0 002.358 11.088l-3.45 3.93-12.952-14.75A21.105 21.105 0 01.598 22.81a18.617 18.617 0 01-.01-9.22 17.363 17.363 0 014.594-7.986 18.401 18.401 0 016.573-4.212 18.496 18.496 0 0115.246 1.064 18.355 18.355 0 015.916 5.084 27.877 27.877 0 00-6.224 4.878zm-7.155 14.92a26.412 26.412 0 015.107-12.52 7.978 7.978 0 00-3.126-2.528 8.034 8.034 0 00-7.775.634 7.956 7.956 0 00-2.67 3.001 7.897 7.897 0 00.322 7.745 7.967 7.967 0 002.91 2.772 8.029 8.029 0 005.232.896zm54.711 0a26.412 26.412 0 00-5.115-12.519 7.98 7.98 0 013.278-2.598 8.036 8.036 0 018.031.988 7.946 7.946 0 012.542 3.314 7.893 7.893 0 01-1.172 7.956 7.989 7.989 0 01-3.39 2.452 8.038 8.038 0 01-4.174.407zm-27.356-5.508a11.086 11.086 0 00-6.133 1.845 10.98 10.98 0 00-4.067 4.919 10.901 10.901 0 00-.632 6.336 10.944 10.944 0 003.018 5.616 11.056 11.056 0 005.65 3.003 11.1 11.1 0 006.377-.622 11.02 11.02 0 004.954-4.038 10.916 10.916 0 001.86-6.092 10.945 10.945 0 00-3.233-7.747 11.087 11.087 0 00-7.794-3.22zm0 25.01a14.2 14.2 0 01-7.853-2.366 14.065 14.065 0 01-5.207-6.302 13.963 13.963 0 01-.805-8.116 14.018 14.018 0 013.868-7.191 14.163 14.163 0 017.237-3.844 14.219 14.219 0 018.167.799 14.116 14.116 0 016.344 5.173 13.981 13.981 0 012.382 7.804 14.01 14.01 0 01-4.143 9.927 14.19 14.19 0 01-9.99 4.117zm-22.1-4.98a26.655 26.655 0 01-2.28-8.468 24.615 24.615 0 01.64-8.458 23.39 23.39 0 016.211-10.83c9.666-9.6 25.393-9.602 35.059 0a23.382 23.382 0 016.198 10.798 25.061 25.061 0 01-.024 12.379A28.336 28.336 0 0164.35 49.02L46.893 68.904 29.438 49.019a28.864 28.864 0 01-4.494-6.833 2.038 2.038 0 00-.151-.326z" fill="#A9A9A9"/></svg>