<svg width="88" height="88" fill="none" xmlns="http://www.w3.org/2000/svg"><path d="M41.403 46.097l-5.43-.464-3.521-3.51-4.201-4.197c-2.466 7.849 1.898 16.208 9.742 18.67 2.754.866 5.698.912 8.472.14l28.771 28.873a7.19 7.19 0 0010.152.557 7.193 7.193 0 000-10.708L56.666 46.74c2.416-7.867-2.002-16.206-9.868-18.622a14.923 14.923 0 00-8.56-.056l4.103 4.103 3.534 3.537.47 5.425-2.463 2.46-2.479 2.509zm12.146 6.257L78.781 77.59c.494.466.525 1.244.061 1.74a1.23 1.23 0 01-1.74.063l-.063-.062-25.221-25.247 1.731-1.731z" fill="#A9A9A9"/><path d="M15.007 58.425L9.65 69.402l6.283 6.277 10.84-5.505a31.794 31.794 0 007.656 3.125l3.964 11.53h8.887l3.774-11.53a31.03 31.03 0 006.105-2.344l-8.107-8.11C37.802 66.353 25.84 60.07 22.338 48.82c-3.5-11.252 2.78-23.212 14.03-26.713 11.248-3.503 23.209 2.78 26.715 14.029a21.331 21.331 0 01-.23 13.366l8.009 8.027a31.717 31.717 0 002.715-6.834l11.545-3.954v-8.895L73.554 34.07a31.503 31.503 0 00-3.176-7.64l5.352-10.954-6.277-6.295-10.84 5.507a32.637 32.637 0 00-7.66-3.15L46.992 0h-8.897l-3.774 11.579a31.65 31.65 0 00-7.63 3.166L15.726 9.397 9.433 15.69l5.518 10.84a32.408 32.408 0 00-3.169 7.64L.293 38.132v8.91l11.58 3.766a31.158 31.158 0 003.134 7.617z" fill="#A9A9A9"/></svg>