<svg width="104" height="104" fill="none" xmlns="http://www.w3.org/2000/svg"><g clip-path="url(#clip0_126_1551)" fill="#A9A9A9"><path d="M11.668 58.809c3.022 1.966 6.329 2.803 8.84 2.234a.414.414 0 00.276-.211.373.373 0 000-.325c-1.04-2.836-5.03-12.277-12.887-14.625a.316.316 0 00-.121 0 .406.406 0 00-.382.244 11.578 11.578 0 00-.65 6.865c.398 1.86 2.283 4.103 4.924 5.818zm9.806 14.316c-3.144-2.438-8.637-4.404-10.23-4.404a1.023 1.023 0 00-.3 0c-1.828.602-2.697 3.795-2.364 5.176.276 1.154 5.509 5.427 14.17 4.517a1.512 1.512 0 001.17-.812 1.553 1.553 0 000-1.438 8.606 8.606 0 00-2.446-3.039zm55.819-34.848a25.7 25.7 0 008.125-1.194c-3.355-9.295-7.044-13.374-9.425-14.09-8.247-2.437-23.83-2.485-23.985-2.485-.154 0-15.738 0-23.993 2.486-2.38.715-6.07 4.794-9.425 14.089a25.675 25.675 0 008.125 1.194h50.578zM44.866 51.504v-4.923l-18.687-.862c4.534 4.022 15.502 5.468 18.687 5.785zM11.286 35.36l.365.35.56-.252c.13-.342.269-.707.423-1.097l-2.502-3.843a.568.568 0 00-.358-.252L2.218 28.64a.56.56 0 00-.487.122.552.552 0 00-.212.446v3.803a.577.577 0 00.488.569l8.125 1.202c.433.074.835.275 1.154.577zm61.026 33.784H31.687a1.625 1.625 0 00-1.348 2.584l4.598 6.573a1.625 1.625 0 001.35.706h31.419a1.625 1.625 0 001.356-.706l4.583-6.573a1.626 1.626 0 00-1.333-2.584zM96.85 82.68l-8.677 1.316v1.406a2.608 2.608 0 002.608 2.608h8.986a2.608 2.608 0 002.6-2.608v-9.393a32.097 32.097 0 01-1.625 3.835 5.26 5.26 0 01-3.892 2.836zm-93.6-2.836a32.255 32.255 0 01-1.625-3.85v9.408a2.608 2.608 0 002.608 2.608h8.986a2.608 2.608 0 002.609-2.608v-1.406L7.15 82.68a5.265 5.265 0 01-3.9-2.836zm89.099-44.143l.365-.341a2.21 2.21 0 011.195-.585l8.076-1.203a.577.577 0 00.504-.568V29.2a.565.565 0 00-.22-.447.583.583 0 00-.487-.122l-7.548 1.625a.545.545 0 00-.358.244l-2.51 3.851c.154.39.292.756.422 1.097l.56.252zm.706 33.012c-.1-.015-.2-.015-.3 0-1.625 0-7.085 1.966-10.23 4.404a8.604 8.604 0 00-2.486 3.112 1.527 1.527 0 00.049 1.438 1.487 1.487 0 001.162.812c8.661.902 13.894-3.363 14.17-4.517.333-1.455-.544-4.648-2.365-5.249z"/><path d="M104 49.904a3.331 3.331 0 00-.496-1.625l-4.737-7.54a3.249 3.249 0 00-2.283-1.495l-.21-.057-5.737-2.486-.122-.334c-1.406-3.834-6.5-16.501-13.48-18.2C68.25 16.023 52.163 15.99 52 15.99c-.163 0-16.25 0-24.903 2.153-6.955 1.698-12.074 14.357-13.48 18.2l-.121.333-5.948 2.543a3.25 3.25 0 00-2.283 1.495l-4.737 7.54a3.339 3.339 0 00-.496 1.625C-.358 66.463 2.78 75.302 4.68 79.13a3.64 3.64 0 002.714 1.95l19.605 2.982c.243.033.487.049.732.049h48.538c.245 0 .49-.016.732-.049l19.605-2.982a3.64 3.64 0 002.714-1.95c1.901-3.794 5.037-12.634 4.647-29.25l.033.025zM16.778 37.302c3.12-8.938 7.045-14.755 10.766-15.86 8.474-2.535 24.293-2.56 24.456-2.56.163 0 15.982 0 24.456 2.56 3.665 1.089 7.686 7.02 10.766 15.86a.812.812 0 01-.48 1.024 26.057 26.057 0 01-9.449 1.576H26.707a26.327 26.327 0 01-9.458-1.576.812.812 0 01-.47-1.024zM5.176 53.276c-.55-2.63-.287-5.365.755-7.841a2.047 2.047 0 012.438-1.138c8.369 2.527 12.553 11.766 13.967 15.65a2.03 2.03 0 01-1.471 2.68 9.215 9.215 0 01-1.982.212 15.372 15.372 0 01-8.125-2.665c-3.023-1.975-5.12-4.558-5.582-6.898zm20.158 25.187a3.129 3.129 0 01-2.438 1.625c-.85.093-1.704.14-2.56.138-7.897 0-12.894-3.94-13.365-5.898-.471-1.959.536-6.135 3.437-7.094 2.056-.674 8.824 2.137 12.033 4.632a10.1 10.1 0 012.958 3.697 3.152 3.152 0 01-.065 2.86v.04zM23.66 45.264a.813.813 0 010-.853.813.813 0 01.74-.406l21.336.991a.812.812 0 01.812.813v6.597a.813.813 0 01-.812.813h-.065c-.78-.073-17.745-1.455-22.011-7.955zm51.31 27.39l-4.575 6.573a3.292 3.292 0 01-2.69 1.405h-31.41a3.292 3.292 0 01-2.69-1.405l-4.574-6.573a3.25 3.25 0 012.657-5.135h40.624a3.25 3.25 0 012.682 5.135h-.025zM58.385 53.203h-.065a.813.813 0 01-.544-.22.812.812 0 01-.268-.593V45.8a.812.812 0 01.812-.812l21.304-.983a.812.812 0 01.74.406.813.813 0 010 .853c-4.29 6.5-21.256 7.882-21.979 7.938zm38.618 21.06c-.47 1.958-5.468 5.898-13.365 5.898-.855.001-1.71-.045-2.56-.138a3.168 3.168 0 01-2.502-4.525 10.099 10.099 0 012.957-3.697c3.25-2.495 9.978-5.306 12.033-4.632 2.901.96 3.884 5.2 3.437 7.094zm1.82-20.987c-.463 2.34-2.559 4.923-5.606 6.898a15.372 15.372 0 01-8.125 2.665 9.215 9.215 0 01-1.982-.212 2.03 2.03 0 01-1.471-2.68c1.414-3.868 5.598-13.123 13.942-15.65a2.04 2.04 0 012.438 1.138 13.235 13.235 0 01.804 7.84z"/><path d="M96.2 45.841a.32.32 0 00-.122 0c-7.857 2.373-11.846 11.814-12.886 14.625a.39.39 0 000 .333.415.415 0 00.276.212c2.51.568 5.818-.269 8.84-2.235 2.64-1.714 4.526-3.957 4.875-5.858.486-2.301.26-4.696-.65-6.865a.406.406 0 00-.333-.212zm-37.066 5.663c3.185-.34 14.153-1.763 18.687-5.785l-18.687.862v4.923z"/></g><defs><clipPath id="clip0_126_1551"><path fill="#fff" d="M0 0h104v104H0z"/></clipPath></defs></svg>