<svg width="36" height="36" fill="none" xmlns="http://www.w3.org/2000/svg"><path d="M35.227 29.881V6.119A5.347 5.347 0 0029.881.772H6.119A5.347 5.347 0 00.772 6.12v23.76a5.347 5.347 0 005.347 5.346H29.88a5.346 5.346 0 005.346-5.346z" stroke="url(#paint0_linear_1_271)" stroke-miterlimit="10"/><path d="M26.907 12.954a1.643 1.643 0 00-1.497-1.457 100.723 100.723 0 00-14.828 0 1.647 1.647 0 00-1.497 1.457 42.58 42.58 0 000 10.091c.091.78.713 1.399 1.497 1.458 4.943.364 9.885.364 14.828 0a1.647 1.647 0 001.497-1.457c.4-3.363.4-6.73 0-10.092zm-5.988 4.987l-4.456 2.55a.246.246 0 01-.368-.214v-5.105c0-.186.202-.305.368-.214l4.456 2.55a.245.245 0 010 .425v.008z" fill="url(#paint1_linear_1_271)"/><defs><linearGradient id="paint0_linear_1_271" x1=".574" y1="18" x2="35.426" y2="18" gradientUnits="userSpaceOnUse"><stop stop-color="#9F734C"/><stop offset=".13" stop-color="#BA945E"/><stop offset=".28" stop-color="#D1B16E"/><stop offset=".42" stop-color="#E2C579"/><stop offset=".56" stop-color="#ECD180"/><stop offset=".7" stop-color="#F0D683"/><stop offset=".75" stop-color="#E7CC7D"/><stop offset=".84" stop-color="#D2B16E"/><stop offset=".95" stop-color="#AF8757"/><stop offset="1" stop-color="#9F734C"/></linearGradient><linearGradient id="paint1_linear_1_271" x1="8.792" y1="18" x2="27.208" y2="18" gradientUnits="userSpaceOnUse"><stop stop-color="#9F734C"/><stop offset=".13" stop-color="#BA945E"/><stop offset=".28" stop-color="#D1B16E"/><stop offset=".42" stop-color="#E2C579"/><stop offset=".56" stop-color="#ECD180"/><stop offset=".7" stop-color="#F0D683"/><stop offset=".75" stop-color="#E7CC7D"/><stop offset=".84" stop-color="#D2B16E"/><stop offset=".95" stop-color="#AF8757"/><stop offset="1" stop-color="#9F734C"/></linearGradient></defs></svg>