<svg width="36" height="36" fill="none" xmlns="http://www.w3.org/2000/svg"><path d="M25.707 11.434l-.295.104L9.408 17.13a.536.536 0 00-.28.197.509.509 0 00.03.636.54.54 0 00.297.172l4.143 1.1.772 2.2.773 2.2a.715.715 0 00.207.278.746.746 0 00.67.145.742.742 0 00.31-.167l2.14-1.961 4.202 2.764c.514.339 1.246.088 1.378-.472l2.783-11.927c.136-.59-.505-1.076-1.126-.861zm-2.043 2.647l-7.231 5.732-.34.27a.354.354 0 00-.136.233l-.077.61-.209 1.712a.077.077 0 01-.019.058.082.082 0 01-.114.009.078.078 0 01-.029-.054l-.588-1.711-.607-1.752a.345.345 0 01.01-.24.36.36 0 01.165-.18l7.524-4.182 1.416-.786c.206-.116.416.137.235.281z" fill="url(#paint0_linear_1_272)"/><path d="M35.227 29.881V6.119A5.347 5.347 0 0029.881.772H6.119A5.347 5.347 0 00.772 6.12v23.76a5.347 5.347 0 005.347 5.346H29.88a5.346 5.346 0 005.346-5.346z" stroke="url(#paint1_linear_1_272)" stroke-miterlimit="10"/><defs><linearGradient id="paint0_linear_1_272" x1="9.028" y1="18.118" x2="26.847" y2="18.118" gradientUnits="userSpaceOnUse"><stop stop-color="#9F734C"/><stop offset=".13" stop-color="#BA945E"/><stop offset=".28" stop-color="#D1B16E"/><stop offset=".42" stop-color="#E2C579"/><stop offset=".56" stop-color="#ECD180"/><stop offset=".7" stop-color="#F0D683"/><stop offset=".75" stop-color="#E7CC7D"/><stop offset=".84" stop-color="#D2B16E"/><stop offset=".95" stop-color="#AF8757"/><stop offset="1" stop-color="#9F734C"/></linearGradient><linearGradient id="paint1_linear_1_272" x1=".574" y1="18" x2="35.426" y2="18" gradientUnits="userSpaceOnUse"><stop stop-color="#9F734C"/><stop offset=".13" stop-color="#BA945E"/><stop offset=".28" stop-color="#D1B16E"/><stop offset=".42" stop-color="#E2C579"/><stop offset=".56" stop-color="#ECD180"/><stop offset=".7" stop-color="#F0D683"/><stop offset=".75" stop-color="#E7CC7D"/><stop offset=".84" stop-color="#D2B16E"/><stop offset=".95" stop-color="#AF8757"/><stop offset="1" stop-color="#9F734C"/></linearGradient></defs></svg>