<svg width="36" height="36" fill="none" xmlns="http://www.w3.org/2000/svg"><path d="M35.227 29.881V6.119A5.347 5.347 0 0029.881.772H6.119A5.347 5.347 0 00.772 6.12v23.76a5.347 5.347 0 005.347 5.346H29.88a5.346 5.346 0 005.346-5.346z" stroke="url(#paint0_linear_1_273)" stroke-miterlimit="10"/><path d="M7.988 12.891h3.616c.139 0 .265.083.325.21.832 1.806 1.841 3.441 3.061 4.883.103.17.357.15.436-.032.38-.926 1.085-3.18-.277-4.784a.281.281 0 01.099-.44c1.378-.574 2.728-.657 4.04-.07a.764.764 0 01.455.7L20.052 18c0 .206.19.372.392.329 1.512-.321 2.404-2.587 3.283-4.95a.739.739 0 01.693-.488h3.33c.274 0 .492.242.444.51-.313 1.68-2 3.854-2.883 4.9a.966.966 0 000 1.251l2.978 3.545a.39.39 0 01-.3.641h-3.771c-.309 0-.606-.13-.816-.356l-2.637-2.194c-.14-.15-.397-.202-.523-.047-.325.396-.301.887-.456 2-.047.348-.36.598-.713.598h-2.578c-.368 0-.729-.076-1.061-.234-1.477-.701-5.521-3.188-7.79-10.143a.364.364 0 01.344-.475v.004z" fill="url(#paint1_linear_1_273)"/><defs><linearGradient id="paint0_linear_1_273" x1=".574" y1="18" x2="35.426" y2="18" gradientUnits="userSpaceOnUse"><stop stop-color="#9F734C"/><stop offset=".13" stop-color="#BA945E"/><stop offset=".28" stop-color="#D1B16E"/><stop offset=".42" stop-color="#E2C579"/><stop offset=".56" stop-color="#ECD180"/><stop offset=".7" stop-color="#F0D683"/><stop offset=".75" stop-color="#E7CC7D"/><stop offset=".84" stop-color="#D2B16E"/><stop offset=".95" stop-color="#AF8757"/><stop offset="1" stop-color="#9F734C"/></linearGradient><linearGradient id="paint1_linear_1_273" x1="7.624" y1="18" x2="28.376" y2="18" gradientUnits="userSpaceOnUse"><stop stop-color="#9F734C"/><stop offset=".13" stop-color="#BA945E"/><stop offset=".28" stop-color="#D1B16E"/><stop offset=".42" stop-color="#E2C579"/><stop offset=".56" stop-color="#ECD180"/><stop offset=".7" stop-color="#F0D683"/><stop offset=".75" stop-color="#E7CC7D"/><stop offset=".84" stop-color="#D2B16E"/><stop offset=".95" stop-color="#AF8757"/><stop offset="1" stop-color="#9F734C"/></linearGradient></defs></svg>